<svg width="125" height="125" viewBox="0 0 125 125" fill="none" xmlns="http://www.w3.org/2000/svg">
<g clip-path="url(#clip0)">
<path d="M62.0174 116.599C61.002 116.599 60.1656 115.791 60.1361 114.77C60.1066 113.73 60.9249 112.864 61.9641 112.835C63.0052 112.787 63.8797 113.593 63.9254 114.633C63.972 115.671 63.1651 116.55 62.1259 116.596L62.0717 116.598C62.0536 116.599 62.0355 116.599 62.0174 116.599ZM54.4482 116.315C54.374 116.315 54.3007 116.311 54.2255 116.303L54.2208 116.302C53.1863 116.198 52.4374 115.277 52.5411 114.241C52.6449 113.207 53.5737 112.454 54.6071 112.557L54.6652 112.563C55.6977 112.685 56.4361 113.62 56.3143 114.653C56.202 115.611 55.3894 116.315 54.4482 116.315ZM69.5695 115.735C68.6883 115.735 67.9013 115.113 67.7253 114.216C67.5235 113.196 68.1877 112.206 69.2079 112.005L69.2431 111.998C70.2642 111.803 71.2501 112.473 71.4451 113.494C71.6402 114.515 70.9712 115.501 69.9501 115.696L69.9359 115.699C69.8122 115.723 69.6903 115.735 69.5695 115.735ZM46.9799 114.881C46.8162 114.881 46.6496 114.859 46.4831 114.814L46.4726 114.811C45.4687 114.544 44.8692 113.513 45.1356 112.51C45.4021 111.505 46.4317 110.906 47.4357 111.172L47.4747 111.182C48.4777 111.456 49.0687 112.49 48.7946 113.493C48.5662 114.331 47.8078 114.881 46.9799 114.881ZM76.9046 113.724C76.1347 113.724 75.4134 113.25 75.1346 112.485C74.7796 111.507 75.284 110.427 76.2604 110.072L76.2918 110.062C77.2691 109.711 78.3473 110.218 78.6994 111.196C79.0515 112.175 78.5424 113.253 77.5641 113.605L77.5479 113.611C77.3347 113.688 77.1178 113.724 76.9046 113.724ZM39.8103 112.313C39.5534 112.313 39.2926 112.26 39.0424 112.147L39.0167 112.136C38.0698 111.706 37.6501 110.591 38.0793 109.644C38.5085 108.697 39.6229 108.278 40.5707 108.707C41.5185 109.135 41.9496 110.254 41.5223 111.202C41.2073 111.9 40.5259 112.313 39.8103 112.313ZM83.8381 110.613C83.1644 110.613 82.5144 110.251 82.1757 109.617C81.6856 108.699 82.0329 107.558 82.9503 107.069C83.861 106.569 85.0058 106.901 85.5073 107.811C86.0078 108.722 85.6767 109.867 84.765 110.367L84.7222 110.391C84.4396 110.542 84.1369 110.613 83.8381 110.613ZM100.934 93.7863L100.946 93.7949L100.748 93.6531L100.934 93.7863ZM14.0432 85.5814C13.3 85.5814 12.5958 85.138 12.2979 84.4071L12.2932 84.3938C11.8964 83.4327 12.3541 82.3316 13.3143 81.9357C14.2754 81.5389 15.3764 81.9967 15.7723 82.9568L15.7856 82.9902C16.1777 83.9532 15.7133 85.0514 14.7503 85.4425C14.519 85.5367 14.2783 85.5814 14.0432 85.5814ZM107.477 81.9691C107.28 81.9691 107.08 81.9377 106.882 81.872C105.902 81.5456 105.37 80.4912 105.685 79.5101C105.992 78.5213 107.041 77.9627 108.031 78.2634C109.026 78.5661 109.587 79.6138 109.286 80.6073L109.263 80.6815C109 81.4704 108.265 81.9691 107.477 81.9691ZM11.7412 78.3348C10.8895 78.3348 10.1178 77.7534 9.91127 76.8893L9.90556 76.8645C9.6648 75.853 10.2881 74.8376 11.2997 74.5959C12.3113 74.3542 13.3266 74.9784 13.5674 75.99L13.5731 76.0147C13.8148 77.0254 13.1906 78.0408 12.1799 78.2825C12.0324 78.3177 11.8859 78.3348 11.7412 78.3348ZM109.208 74.5654C109.1 74.5654 108.99 74.5559 108.879 74.5359C107.863 74.357 107.181 73.3921 107.349 72.3767C107.507 71.3537 108.461 70.6476 109.485 70.798C110.513 70.9502 111.224 71.9028 111.073 72.9315L111.06 73.0095C110.899 73.9221 110.105 74.5654 109.208 74.5654ZM10.5793 70.817C9.61341 70.817 8.79216 70.0804 8.70652 69.1012L8.70081 69.0232C8.6399 67.985 9.43165 67.0952 10.4699 67.0333C11.4986 66.9705 12.3864 67.7537 12.4578 68.7815C12.5406 69.813 11.7755 70.7218 10.743 70.8103C10.6878 70.8151 10.6336 70.817 10.5793 70.817ZM109.785 66.9838C108.745 66.9838 107.903 66.1417 107.903 65.1015V65.0768C107.903 65.0635 107.903 65.0501 107.903 65.0378C107.903 65.0216 107.903 65.0045 107.903 64.9883V64.9635C107.903 63.9234 108.745 63.0803 109.785 63.0803C110.824 63.0803 111.667 63.9234 111.667 64.9635V64.9883C111.667 65.0016 111.667 65.0149 111.666 65.0273C111.667 65.0435 111.667 65.0597 111.667 65.0768V65.1015C111.667 66.1417 110.825 66.9838 109.785 66.9838ZM10.5746 63.2173C10.5203 63.2173 10.4651 63.2145 10.4099 63.2097C9.37551 63.1203 8.60945 62.2105 8.697 61.177C8.76932 60.1493 9.64862 59.3661 10.6849 59.4308C11.7232 59.4917 12.5149 60.3824 12.454 61.4197L12.4473 61.4977C12.3627 62.4779 11.5405 63.2173 10.5746 63.2173ZM109.194 59.2909C108.298 59.2909 107.504 58.6486 107.343 57.735L107.33 57.657C107.18 56.6283 107.89 55.6719 108.919 55.5206C109.942 55.3693 110.9 56.0782 111.054 57.1041C111.22 58.1185 110.54 59.0816 109.523 59.2614C109.413 59.2814 109.303 59.2909 109.194 59.2909ZM109.51 57.3363L109.192 57.3829L109.51 57.3363ZM11.7165 55.7014C11.5719 55.7014 11.4244 55.6843 11.2778 55.6491C10.2681 55.4083 9.64387 54.3948 9.88272 53.3851C10.1054 52.3812 11.096 51.7398 12.1057 51.951C13.123 52.1642 13.7758 53.1615 13.5627 54.1788L13.5455 54.2559C13.34 55.12 12.5682 55.7014 11.7165 55.7014ZM107.467 51.8987C106.675 51.8987 105.936 51.3924 105.672 50.6016L105.651 50.536C105.345 49.5425 105.902 48.489 106.897 48.1836C107.891 47.8771 108.943 48.4348 109.249 49.4292L109.25 49.4321C109.579 50.4189 109.043 51.4743 108.056 51.8026C107.862 51.8683 107.663 51.8987 107.467 51.8987ZM13.9985 48.4434C13.7625 48.4434 13.5227 48.3986 13.2905 48.3044C12.3274 47.9133 11.864 46.8151 12.2551 45.8521L12.2646 45.8293C12.6558 44.8662 13.753 44.4018 14.717 44.7929C15.68 45.1841 16.1435 46.2822 15.7523 47.2453L15.7428 47.2691C15.4459 47.9999 14.7417 48.4434 13.9985 48.4434ZM104.612 44.8481C103.927 44.8481 103.265 44.4722 102.93 43.8232L102.901 43.768C102.442 42.8345 102.827 41.7068 103.76 41.2481C104.693 40.7895 105.821 41.1739 106.28 42.1065L106.281 42.1103C106.759 43.0334 106.393 44.162 105.469 44.6388C105.194 44.7806 104.901 44.8481 104.612 44.8481ZM17.3691 41.624C17.0351 41.624 16.6963 41.5355 16.3909 41.3481C15.5049 40.8085 15.2242 39.6542 15.7599 38.7682C16.2786 37.8822 17.4158 37.5739 18.3122 38.0821C19.2162 38.595 19.5341 39.7436 19.0221 40.6477C19.0078 40.6724 18.9926 40.6972 18.9774 40.7219C18.6234 41.3033 18.0039 41.624 17.3691 41.624ZM100.704 38.3181C100.101 38.3181 99.5085 38.0288 99.145 37.493C98.5407 36.647 98.7415 35.4794 99.5885 34.8751C100.433 34.2708 101.615 34.4754 102.22 35.3214L102.26 35.3785C102.843 36.2388 102.619 37.4093 101.759 37.9936C101.436 38.2134 101.068 38.3181 100.704 38.3181ZM21.7428 35.4014C21.3184 35.4014 20.893 35.2586 20.5409 34.9674C19.7415 34.3032 19.6312 33.1165 20.2954 32.3162L20.3116 32.2972C20.9758 31.4969 22.1615 31.3874 22.9618 32.0507C23.7622 32.7149 23.8725 33.9016 23.2083 34.7019L23.1921 34.721C22.82 35.1701 22.2833 35.4014 21.7428 35.4014ZM95.8543 32.4618C95.3594 32.4618 94.8655 32.2686 94.4963 31.8832C93.7683 31.1409 93.7788 29.9467 94.522 29.2187C95.2633 28.4916 96.4538 28.5021 97.1808 29.2444L97.2122 29.2758C97.9326 30.0256 97.9079 31.218 97.158 31.9375C96.7926 32.2886 96.3234 32.4618 95.8543 32.4618ZM27.011 29.9162C26.4895 29.9162 25.9718 29.7021 25.5997 29.2815C24.9108 28.503 24.984 27.3135 25.7625 26.6245L25.7701 26.6179C26.5437 25.9261 27.7342 25.9889 28.428 26.7625C29.1207 27.5352 29.0598 28.7219 28.2881 29.4166L28.2576 29.4442C27.8989 29.7611 27.4535 29.9162 27.011 29.9162ZM90.1702 27.4087C89.7839 27.4087 89.3956 27.2907 89.0597 27.0452L88.9959 26.9966C88.1756 26.3581 88.0272 25.1762 88.6657 24.3549C89.3033 23.5356 90.4824 23.3871 91.3027 24.0219C92.1249 24.6395 92.3 25.8061 91.6909 26.6379C91.3217 27.1422 90.7498 27.4087 90.1702 27.4087ZM90.3396 25.2694L90.1512 25.5111L90.3396 25.2694ZM33.0481 25.2951C32.4267 25.2951 31.8186 24.9878 31.4598 24.4253C30.9012 23.5498 31.1572 22.3889 32.0299 21.8284C32.8882 21.2612 34.0463 21.4886 34.6249 22.3422C35.2092 23.2025 34.9846 24.373 34.1244 24.9563L34.0587 25.0001C33.7456 25.2 33.3954 25.2951 33.0481 25.2951ZM83.7801 23.2767C83.4832 23.2767 83.1815 23.2063 82.9008 23.0569L82.8561 23.0322C81.9454 22.5316 81.6132 21.3868 82.1138 20.4761C82.6143 19.5654 83.7591 19.2333 84.6699 19.7338L84.6756 19.7367C85.5844 20.2325 85.9279 21.3735 85.4369 22.2851C85.0962 22.917 84.4491 23.2767 83.7801 23.2767ZM39.718 21.6485C39.0005 21.6485 38.3144 21.2365 38.0003 20.5408C37.5721 19.594 37.9927 18.4796 38.9396 18.0514L38.9834 18.0323C39.935 17.6146 41.0446 18.0495 41.4623 19.002C41.8782 19.9546 41.4443 21.0642 40.4917 21.481C40.2405 21.5943 39.9769 21.6485 39.718 21.6485Z" fill="#A7C7D3"/>
<path d="M74.6729 101.618L46.3326 73.2779C44.556 71.5021 44.5541 68.6282 46.3279 66.8554C47.0283 66.155 47.9038 65.7305 48.8135 65.5868C50.2019 65.3632 51.676 65.7867 52.7504 66.8611L45.4524 59.5631C44.5655 58.6762 44.1201 57.5133 44.1201 56.3532C44.1201 56.1115 44.1391 55.8689 44.1782 55.6272C44.3238 54.7155 44.7463 53.8419 45.4476 53.1406C46.1414 52.4468 47.0016 52.0262 47.9 51.8768C49.1228 51.6732 50.4113 51.971 51.4381 52.7713L48.6613 49.9945C47.7734 49.1066 47.328 47.9409 47.328 46.7799C47.3261 46.5334 47.348 46.2851 47.3889 46.0424C47.5345 45.1365 47.9561 44.2676 48.6537 43.5701C49.355 42.8687 50.2295 42.4443 51.144 42.3006C52.5315 42.077 54.0065 42.5014 55.08 43.5748L58.2603 46.7552C57.1888 45.6836 56.7624 44.2067 56.9861 42.8193C57.1298 41.9086 57.5523 41.035 58.2555 40.3327C60.0265 38.5617 62.9033 38.5636 64.678 40.3384L83.0958 58.7561L83.1471 58.6828C84.0807 57.7493 85.1808 57.086 86.3541 56.6901C89.2499 55.7138 92.5834 56.3808 94.894 58.6923L103.481 67.2798C105.132 68.9299 106.058 71.1662 106.062 73.4977L106.067 78.8706C106.069 81.3809 107.068 83.7895 108.847 85.5681L110.761 87.4827L88.8578 109.386L86.4103 106.939C84.783 105.311 82.618 104.331 80.3237 104.181C78.192 104.041 76.1851 103.13 74.6729 101.618Z" fill="#FECBAA"/>
<path d="M87.4341 110.809L112.296 85.9468C113.116 85.1274 114.443 85.1274 115.262 85.9468L124.116 94.8007C124.936 95.62 124.936 96.9485 124.116 97.7669L99.2552 122.629C98.4358 123.448 97.1074 123.448 96.289 122.629L87.4341 113.775C86.6157 112.956 86.6157 111.627 87.4341 110.809Z" fill="#FDD559"/>
<path d="M112.958 97.1065C113.693 97.8421 114.884 97.843 115.617 97.1093C116.351 96.3756 116.35 95.1842 115.615 94.4495C114.88 93.7139 113.689 93.713 112.956 94.4467C112.222 95.1813 112.223 96.3718 112.958 97.1065Z" fill="#FF8812"/>
<path d="M89.4373 65.0968L83.0957 58.7561L83.1471 58.6828C84.0806 57.7493 85.1807 57.086 86.3541 56.6901L92.099 62.4351C92.8337 63.1697 92.8337 64.3621 92.099 65.0968C91.3625 65.8333 90.172 65.8314 89.4373 65.0968Z" fill="#FFAE85"/>
<path d="M50.0581 101.621L78.3984 73.2807C80.1751 71.5041 80.177 68.6311 78.4042 66.8582C77.7028 66.1569 76.8283 65.7325 75.9176 65.5888C74.5291 65.3651 73.0551 65.7896 71.9807 66.863L79.2787 59.5659C80.1656 58.679 80.611 57.5161 80.611 56.3552C80.611 56.1144 80.5919 55.8708 80.5529 55.63C80.4073 54.7174 79.9848 53.8448 79.2834 53.1434C78.5897 52.4497 77.7294 52.0291 76.8311 51.8797C75.6083 51.676 74.3198 51.9739 73.293 52.7742L76.0698 49.9964C76.9577 49.1095 77.403 47.9438 77.403 46.7828C77.4049 46.5354 77.3831 46.287 77.3421 46.0443C77.1975 45.1393 76.775 44.2695 76.0774 43.572C75.3761 42.8716 74.5015 42.4472 73.587 42.3035C72.1996 42.0799 70.7245 42.5033 69.6511 43.5777L66.4708 46.758C67.5423 45.6856 67.9686 44.2096 67.745 42.8212C67.6013 41.9114 67.1788 41.0378 66.4755 40.3346C64.7046 38.5636 61.8278 38.5655 60.053 40.3403L41.6353 58.758L41.5839 58.6857C40.6504 57.7521 39.5503 57.0889 38.377 56.693C35.4802 55.7166 32.1476 56.3837 29.8371 58.6943L21.2496 67.2827C19.5986 68.9328 18.6726 71.1691 18.6688 73.5006L18.6631 78.8725C18.6622 81.3838 17.663 83.7924 15.8844 85.5709L13.9697 87.4856L35.8732 109.389L38.3208 106.942C39.9481 105.314 42.113 104.334 44.4074 104.184C46.539 104.044 48.546 103.133 50.0581 101.621Z" fill="#FECBAA"/>
<path d="M37.297 110.811L12.4349 85.9497C11.6155 85.1303 10.288 85.1303 9.46866 85.9497L0.614755 94.8036C-0.204593 95.6229 -0.204593 96.9504 0.614755 97.7698L25.4759 122.632C26.2953 123.451 27.6237 123.451 28.4431 122.632L37.297 113.778C38.1163 112.959 38.1163 111.63 37.297 110.811Z" fill="#FF84A7"/>
<path d="M28.8114 114.145C29.547 113.41 29.548 112.219 28.8143 111.485C28.0806 110.751 26.8891 110.752 26.1545 111.487C25.4189 112.222 25.4179 113.413 26.1516 114.147C26.8863 114.881 28.0767 114.88 28.8114 114.145Z" fill="#EF6085"/>
<path d="M35.2947 65.0996L41.6354 58.758L41.584 58.6857C40.6504 57.7521 39.5503 57.0889 38.377 56.693L32.632 62.437C31.8974 63.1716 31.8974 64.365 32.632 65.0996C33.3686 65.8362 34.5591 65.8343 35.2947 65.0996Z" fill="#FFAE85"/>
<path d="M80.4912 33.7008V73.7804C80.4912 76.2926 78.4614 78.3253 75.9538 78.3253C74.9622 78.3253 74.0439 78.0065 73.2979 77.4641C72.1588 76.6409 71.4156 75.2982 71.4156 73.7804V84.1007C71.4156 85.3549 70.9083 86.4921 70.088 87.3124C69.9177 87.4837 69.7312 87.6417 69.5332 87.7844C68.7853 88.3269 67.8698 88.6457 66.8782 88.6457C65.8971 88.6457 64.9902 88.3345 64.2498 87.8054C63.2411 87.085 62.5407 85.963 62.3808 84.6698V88.5981C62.3808 89.8533 61.8708 90.9924 61.0505 91.8127C60.8773 91.9887 60.686 92.1495 60.4862 92.2923C59.7429 92.8299 58.8294 93.1459 57.8425 93.1459C56.8519 93.1459 55.9326 92.8271 55.1847 92.2828C54.0456 91.4596 53.3024 90.1169 53.3024 88.5981V84.1007C53.3024 85.6166 52.5601 86.9613 51.42 87.7844C50.6749 88.3269 49.7585 88.6457 48.765 88.6457C46.2594 88.6457 44.2267 86.6101 44.2267 84.1007V58.0538L44.1392 58.069C42.8193 58.069 41.5717 57.7598 40.4621 57.2107C37.7243 55.8527 35.8391 53.0245 35.8391 49.7566V37.611C35.8391 35.2777 36.765 33.0414 38.4113 31.3893L42.2064 27.5876C43.9812 25.81 44.9775 23.4014 44.9775 20.8863V18.1779H75.9529V21.639C75.9529 23.94 76.7913 26.164 78.3072 27.8931C79.7156 29.4994 80.4912 31.5625 80.4912 33.7008Z" fill="#FEDFC5"/>
<path d="M78.4043 66.8582C77.7029 66.1569 76.8284 65.7334 75.9177 65.5888C74.5292 65.3651 73.0552 65.7896 71.9808 66.8639L79.2788 59.5659C80.1657 58.679 80.612 57.5161 80.612 56.3561C80.612 56.1144 80.592 55.8708 80.553 55.63C80.4074 54.7174 79.9859 53.8448 79.2845 53.1434C78.5908 52.4497 77.7296 52.0291 76.8322 51.8797C75.6093 51.676 74.3208 51.9739 73.2931 52.7742L76.0709 49.9964C76.9578 49.1095 77.4031 47.9438 77.4031 46.7828C77.4051 46.5363 77.3841 46.2879 77.3432 46.0443C77.1976 45.1393 76.7751 44.2695 76.0775 43.572C75.3771 42.8716 74.5016 42.4472 73.5881 42.3035C72.2006 42.0799 70.7247 42.5043 69.6512 43.5777L66.4709 46.758C67.5424 45.6856 67.9688 44.2096 67.7451 42.8212C67.6014 41.9114 67.1789 41.0378 66.4766 40.3346C64.7047 38.5636 61.8279 38.5655 60.0531 40.3403L41.6354 58.758L41.584 58.6857C40.6505 57.7521 39.5504 57.0889 38.3771 56.693C36.9877 56.2248 35.4984 56.1382 34.0681 56.4265C35.2196 58.1671 36.8297 59.6107 38.792 60.5842C39.3363 60.8535 39.894 61.08 40.463 61.2627V84.1007C40.463 88.6828 44.1877 92.4103 48.765 92.4103C49.316 92.4103 49.8584 92.357 50.3866 92.2523C50.9775 93.4599 51.8587 94.5229 52.9693 95.3251C53.6582 95.8275 54.41 96.212 55.2008 96.4785L78.3985 73.2807C80.1752 71.5041 80.1771 68.6311 78.4043 66.8582Z" fill="#FFAE85"/>
<path d="M84.2539 73.7803V57.7512C83.8647 58.0243 83.4935 58.3355 83.1452 58.6828L83.0938 58.7561L64.6761 40.3384C62.9013 38.5636 60.0246 38.5617 58.2536 40.3327C57.5504 41.035 57.1278 41.9086 56.9841 42.8193C56.7605 44.2067 57.1868 45.6836 58.2584 46.7552L55.078 43.5748C54.0046 42.5014 52.5296 42.077 51.1421 42.3006C50.2276 42.4443 49.3531 42.8687 48.6517 43.5701C47.9542 44.2676 47.5317 45.1365 47.3861 46.0424C47.3461 46.2851 47.3242 46.5334 47.3261 46.7799C47.3261 47.9409 47.7715 49.1066 48.6593 49.9945L51.4362 52.7713C50.4084 51.971 49.1209 51.6732 47.898 51.8768C46.9997 52.0262 46.1394 52.4468 45.4457 53.1406C44.7444 53.8419 44.3218 54.7155 44.1762 55.6272C44.1372 55.8689 44.1172 56.1115 44.1182 56.3532C44.1172 57.5142 44.5636 58.6762 45.4505 59.5631L52.7485 66.8611C51.675 65.7876 50.2 65.3632 48.8126 65.5868C47.9019 65.7305 47.0264 66.155 46.326 66.8554C44.5531 68.6292 44.555 71.5021 46.3307 73.2788L65.3166 92.2637C65.8266 92.3608 66.3481 92.4102 66.8763 92.4102C68.6358 92.4102 70.3183 91.865 71.7343 90.8382C72.095 90.5774 72.4366 90.2872 72.7487 89.975C74.3161 88.4077 75.1792 86.3218 75.1792 84.1007V82.0547C75.4342 82.0785 75.6931 82.0899 75.9519 82.0899C80.5292 82.0899 84.2539 78.3624 84.2539 73.7803Z" fill="#FFAE85"/>
<path d="M80.4912 33.7008V73.7804C80.4912 76.2926 78.4614 78.3253 75.9538 78.3253C75.8863 78.3253 75.813 78.3253 75.7407 78.3205C74.8338 78.2777 73.9935 77.9694 73.3036 77.4669C73.3007 77.4669 73.3007 77.4641 73.2979 77.4641C72.1588 76.6409 71.4156 75.2982 71.4156 73.7804V84.1007C71.4156 85.3549 70.9083 86.4921 70.088 87.3124C69.9177 87.4837 69.7312 87.6417 69.5332 87.7844C68.7853 88.3269 67.8698 88.6457 66.8782 88.6457C65.8971 88.6457 64.9902 88.3345 64.2498 87.8054C63.2411 87.085 62.5407 85.963 62.3808 84.6698V88.5981C62.3808 89.8533 61.8708 90.9924 61.0505 91.8127C60.8773 91.9887 60.686 92.1495 60.4862 92.2923C59.7429 92.8299 58.8294 93.1459 57.8425 93.1459C56.8519 93.1459 55.9326 92.8271 55.1847 92.2828C54.0456 91.4596 53.3024 90.1169 53.3024 88.5981V84.1007C53.3024 85.6166 52.5601 86.9613 51.42 87.7844C50.6749 88.3269 49.7585 88.6457 48.765 88.6457C46.2594 88.6457 44.2267 86.6101 44.2267 84.1007V58.0538L44.1392 58.069C42.8193 58.069 41.5717 57.7598 40.4621 57.2107C37.7243 55.8527 35.8391 53.0245 35.8391 49.7566V37.611C35.8391 35.2777 36.765 33.0414 38.4113 31.3893L42.2064 27.5876C43.3036 26.4885 44.104 25.1476 44.5531 23.6869C44.8348 22.7838 44.9775 21.8322 44.9775 20.8863V18.1779H75.9529V21.639C75.9529 22.4146 76.0366 23.233 76.2517 23.98C76.6133 25.4189 77.3166 26.7616 78.3072 27.8931C79.7032 29.487 80.4912 31.5778 80.4912 33.7008Z" fill="#FEDFC5"/>
<path d="M80.491 33.7008V73.7804C80.491 76.2926 78.4612 78.3253 75.9537 78.3253C75.8861 78.3253 75.8129 78.3253 75.7405 78.3206C74.8336 78.2777 73.9934 77.9694 73.3034 77.4669L73.3805 38.8463C73.3805 38.6131 73.3282 38.2439 73.2301 37.7747C71.4982 29.3386 64.3781 23.6869 55.7669 23.6869H44.553C44.8347 22.7829 44.9774 21.8322 44.9774 20.8863V18.1779H75.9527V21.639C75.9527 22.4146 76.0365 23.233 76.2516 23.98C76.6132 25.4189 77.3164 26.7616 78.3071 27.8931C79.7031 29.487 80.491 31.5778 80.491 33.7008Z" fill="#FECBAA"/>
<path d="M77.9665 18.1789H42.8059C41.6477 18.1789 40.7085 17.2396 40.7085 16.0815V3.55911C40.7085 2.40098 41.6477 1.46173 42.8059 1.46173H77.9665C79.1246 1.46173 80.0638 2.40098 80.0638 3.55911V16.0815C80.0638 17.2396 79.1246 18.1789 77.9665 18.1789Z" fill="#83D9FF"/>
<path d="M50.6454 9.82082C50.6454 8.78069 49.8042 7.93851 48.7659 7.93851C47.7277 7.93851 46.8865 8.78069 46.8865 9.82082C46.8865 10.86 47.7277 11.7031 48.7659 11.7031C49.8042 11.7031 50.6454 10.86 50.6454 9.82082Z" fill="#5186FF"/>
<path d="M73.2988 52.8057V77.4641C72.1587 76.641 71.4155 75.2982 71.4155 73.7794V84.0998C71.4155 85.355 70.9093 86.4922 70.088 87.3125C69.9177 87.4838 69.7321 87.6417 69.5332 87.7845V52.8057C69.5332 51.7665 70.3773 50.9233 71.4155 50.9233C72.4547 50.9233 73.2988 51.7665 73.2988 52.8057Z" fill="#FECBAA"/>
<path d="M64.2509 52.8057V87.8045C63.2413 87.0841 62.5418 85.9621 62.381 84.6698V88.5981C62.381 89.8524 61.8719 90.9924 61.0506 91.8127C60.8774 91.9887 60.6871 92.1486 60.4863 92.2923V52.8057C60.4863 51.7665 61.3295 50.9233 62.3686 50.9233C63.4078 50.9233 64.2509 51.7665 64.2509 52.8057Z" fill="#FECBAA"/>
<path d="M55.1848 52.8057V92.2818C54.0457 91.4587 53.3025 90.116 53.3025 88.5981V84.0998C53.3025 85.6157 52.5602 86.9613 51.4202 87.7845V52.8057C51.4202 51.7665 52.2643 50.9233 53.3025 50.9233C54.3445 50.9233 55.1848 51.7665 55.1848 52.8057Z" fill="#FECBAA"/>
<path d="M44.2278 49.0857V58.0538L44.1393 58.0681C42.8194 58.0681 41.5718 57.7598 40.4631 57.2107V49.0857C40.4631 48.0466 41.3063 47.2034 42.3454 47.2034C43.3865 47.2034 44.2278 48.0466 44.2278 49.0857Z" fill="#FECBAA"/>
</g>
<defs>
<clipPath id="clip0">
<rect width="124.731" height="124.731" fill="white"/>
</clipPath>
</defs>
</svg>
