<svg width="152" height="203" viewBox="0 0 152 203" fill="none" xmlns="http://www.w3.org/2000/svg">
<path d="M35.918 153.079H22.8516V188.616H14.0625V153.079H1.17188V145.96H35.918V153.079ZM52.3535 189.202C47.7051 189.202 43.916 187.777 40.9863 184.925C38.0762 182.074 36.6211 178.275 36.6211 173.529V172.708C36.6211 169.525 37.2363 166.683 38.4668 164.183C39.6973 161.663 41.4355 159.73 43.6816 158.382C45.9473 157.015 48.5254 156.331 51.416 156.331C55.752 156.331 59.1602 157.699 61.6406 160.433C64.1406 163.167 65.3906 167.044 65.3906 172.064V175.521H45.2051C45.4785 177.591 46.2988 179.251 47.666 180.501C49.0527 181.751 50.8008 182.376 52.9102 182.376C56.1719 182.376 58.7207 181.195 60.5566 178.831L64.7168 183.49C63.4473 185.286 61.7285 186.693 59.5605 187.708C57.3926 188.704 54.9902 189.202 52.3535 189.202ZM51.3867 163.187C49.707 163.187 48.3398 163.753 47.2852 164.886C46.25 166.019 45.5859 167.64 45.293 169.749H57.0703V169.075C57.0312 167.2 56.5234 165.755 55.5469 164.74C54.5703 163.704 53.1836 163.187 51.3867 163.187ZM88.5938 188.616C88.2031 187.855 87.9199 186.908 87.7441 185.775C85.6934 188.06 83.0273 189.202 79.7461 189.202C76.6406 189.202 74.0625 188.304 72.0117 186.507C69.9805 184.71 68.9648 182.445 68.9648 179.71C68.9648 176.351 70.2051 173.773 72.6855 171.976C75.1855 170.179 78.7891 169.271 83.4961 169.251H87.3926V167.435C87.3926 165.97 87.0117 164.798 86.25 163.919C85.5078 163.04 84.3262 162.601 82.7051 162.601C81.2793 162.601 80.1562 162.943 79.3359 163.626C78.5352 164.31 78.1348 165.247 78.1348 166.439H69.668C69.668 164.603 70.2344 162.904 71.3672 161.341C72.5 159.779 74.1016 158.558 76.1719 157.679C78.2422 156.781 80.5664 156.331 83.1445 156.331C87.0508 156.331 90.1465 157.318 92.4316 159.29C94.7363 161.243 95.8887 163.997 95.8887 167.552V181.292C95.9082 184.3 96.3281 186.575 97.1484 188.118V188.616H88.5938ZM81.5918 182.728C82.8418 182.728 83.9941 182.454 85.0488 181.908C86.1035 181.341 86.8848 180.589 87.3926 179.652V174.202H84.2285C79.9902 174.202 77.7344 175.667 77.4609 178.597L77.4316 179.095C77.4316 180.15 77.8027 181.019 78.5449 181.702C79.2871 182.386 80.3027 182.728 81.5918 182.728ZM110.332 156.917L110.596 160.462C112.842 157.708 115.879 156.331 119.707 156.331C123.789 156.331 126.592 157.943 128.115 161.165C130.342 157.943 133.516 156.331 137.637 156.331C141.074 156.331 143.633 157.337 145.312 159.349C146.992 161.341 147.832 164.349 147.832 168.372V188.616H139.336V168.402C139.336 166.605 138.984 165.296 138.281 164.476C137.578 163.636 136.338 163.216 134.561 163.216C132.021 163.216 130.264 164.427 129.287 166.849L129.316 188.616H120.85V168.431C120.85 166.595 120.488 165.267 119.766 164.447C119.043 163.626 117.812 163.216 116.074 163.216C113.672 163.216 111.934 164.212 110.859 166.204V188.616H102.393V156.917H110.332Z" fill="#588ED2"/>
<g clip-path="url(#clip0)">
<path d="M76.0173 116.599C75.0019 116.599 74.1654 115.791 74.1359 114.77C74.1064 113.73 74.9248 112.864 75.964 112.835C77.0051 112.787 77.8796 113.593 77.9253 114.633C77.9719 115.671 77.1649 116.55 76.1258 116.596L76.0715 116.598C76.0535 116.599 76.0354 116.599 76.0173 116.599ZM68.4481 116.315C68.3739 116.315 68.3006 116.311 68.2254 116.303L68.2206 116.302C67.1862 116.198 66.4373 115.277 66.541 114.241C66.6448 113.207 67.5735 112.454 68.607 112.557L68.665 112.563C69.6976 112.685 70.436 113.62 70.3142 114.653C70.2019 115.611 69.3892 116.315 68.4481 116.315ZM83.5694 115.735C82.6882 115.735 81.9012 115.113 81.7251 114.216C81.5234 113.196 82.1876 112.206 83.2078 112.005L83.243 111.998C84.2641 111.803 85.2499 112.473 85.445 113.494C85.6401 114.515 84.9711 115.501 83.95 115.696L83.9357 115.699C83.812 115.723 83.6902 115.735 83.5694 115.735ZM60.9797 114.881C60.8161 114.881 60.6495 114.859 60.483 114.814L60.4725 114.811C59.4686 114.544 58.869 113.513 59.1355 112.51C59.4019 111.505 60.4316 110.906 61.4356 111.172L61.4746 111.182C62.4776 111.456 63.0686 112.49 62.7945 113.493C62.5661 114.331 61.8077 114.881 60.9797 114.881ZM90.9045 113.724C90.1346 113.724 89.4133 113.25 89.1345 112.485C88.7795 111.507 89.2839 110.427 90.2602 110.072L90.2916 110.062C91.269 109.711 92.3471 110.218 92.6992 111.196C93.0513 112.175 92.5422 113.253 91.564 113.605L91.5478 113.611C91.3346 113.688 91.1177 113.724 90.9045 113.724ZM53.8102 112.313C53.5533 112.313 53.2925 112.26 53.0422 112.147L53.0166 112.136C52.0697 111.706 51.65 110.591 52.0792 109.644C52.5084 108.697 53.6227 108.278 54.5706 108.707C55.5184 109.135 55.9495 110.254 55.5222 111.202C55.2072 111.9 54.5258 112.313 53.8102 112.313ZM97.838 110.613C97.1643 110.613 96.5143 110.251 96.1755 109.617C95.6854 108.699 96.0328 107.558 96.9501 107.069C97.8609 106.569 99.0057 106.901 99.5072 107.811C100.008 108.722 99.6766 109.867 98.7649 110.367L98.7221 110.391C98.4394 110.542 98.1368 110.613 97.838 110.613ZM114.934 93.7863L114.946 93.7949L114.747 93.6531L114.934 93.7863ZM28.0431 85.5814C27.2999 85.5814 26.5957 85.138 26.2978 84.4071L26.2931 84.3938C25.8962 83.4327 26.354 82.3316 27.3142 81.9357C28.2753 81.5389 29.3763 81.9967 29.7722 82.9568L29.7855 82.9902C30.1776 83.9532 29.7132 85.0514 28.7502 85.4425C28.5189 85.5367 28.2782 85.5814 28.0431 85.5814ZM121.477 81.9691C121.28 81.9691 121.08 81.9377 120.882 81.872C119.902 81.5456 119.369 80.4912 119.684 79.5101C119.992 78.5213 121.04 77.9627 122.031 78.2634C123.026 78.5661 123.587 79.6138 123.286 80.6073L123.263 80.6815C123 81.4704 122.265 81.9691 121.477 81.9691ZM25.7411 78.3348C24.8894 78.3348 24.1177 77.7534 23.9112 76.8893L23.9054 76.8645C23.6647 75.853 24.288 74.8376 25.2996 74.5959C26.3111 74.3542 27.3265 74.9784 27.5673 75.99L27.573 76.0147C27.8147 77.0254 27.1904 78.0408 26.1798 78.2825C26.0323 78.3177 25.8858 78.3348 25.7411 78.3348ZM123.208 74.5654C123.1 74.5654 122.99 74.5559 122.879 74.5359C121.863 74.357 121.181 73.3921 121.349 72.3767C121.507 71.3537 122.461 70.6476 123.485 70.798C124.513 70.9502 125.224 71.9028 125.073 72.9315L125.06 73.0095C124.899 73.9221 124.105 74.5654 123.208 74.5654ZM24.5792 70.817C23.6133 70.817 22.792 70.0804 22.7064 69.1012L22.7007 69.0232C22.6398 67.985 23.4315 67.0952 24.4698 67.0333C25.4985 66.9705 26.3863 67.7537 26.4577 68.7815C26.5405 69.813 25.7754 70.7218 24.7429 70.8103C24.6877 70.8151 24.6334 70.817 24.5792 70.817ZM123.785 66.9838C122.745 66.9838 121.903 66.1417 121.903 65.1015V65.0768C121.903 65.0635 121.903 65.0501 121.903 65.0378C121.903 65.0216 121.903 65.0045 121.903 64.9883V64.9635C121.903 63.9234 122.745 63.0803 123.785 63.0803C124.824 63.0803 125.667 63.9234 125.667 64.9635V64.9883C125.667 65.0016 125.667 65.0149 125.666 65.0273C125.667 65.0435 125.667 65.0597 125.667 65.0768V65.1015C125.667 66.1417 124.825 66.9838 123.785 66.9838ZM24.5744 63.2173C24.5202 63.2173 24.465 63.2145 24.4098 63.2097C23.3754 63.1203 22.6093 62.2105 22.6969 61.177C22.7692 60.1493 23.6485 59.3661 24.6848 59.4308C25.723 59.4917 26.5148 60.3824 26.4539 61.4197L26.4472 61.4977C26.3625 62.4779 25.5403 63.2173 24.5744 63.2173ZM123.194 59.2909C122.298 59.2909 121.504 58.6486 121.343 57.735L121.33 57.657C121.179 56.6283 121.89 55.6719 122.919 55.5206C123.942 55.3693 124.9 56.0782 125.053 57.1041C125.22 58.1185 124.54 59.0816 123.523 59.2614C123.413 59.2814 123.303 59.2909 123.194 59.2909ZM123.51 57.3363L123.192 57.3829L123.51 57.3363ZM25.7164 55.7014C25.5717 55.7014 25.4242 55.6843 25.2777 55.6491C24.268 55.4083 23.6437 54.3948 23.8826 53.3851C24.1053 52.3812 25.0959 51.7398 26.1056 51.951C27.1229 52.1642 27.7757 53.1615 27.5625 54.1788L27.5454 54.2559C27.3398 55.12 26.5681 55.7014 25.7164 55.7014ZM121.467 51.8987C120.675 51.8987 119.936 51.3924 119.672 50.6016L119.651 50.536C119.345 49.5425 119.902 48.489 120.897 48.1836C121.891 47.8771 122.943 48.4348 123.249 49.4292L123.25 49.4321C123.578 50.4189 123.043 51.4743 122.056 51.8026C121.862 51.8683 121.663 51.8987 121.467 51.8987ZM27.9984 48.4434C27.7624 48.4434 27.5226 48.3986 27.2904 48.3044C26.3273 47.9133 25.8639 46.8151 26.255 45.8521L26.2645 45.8293C26.6556 44.8662 27.7529 44.4018 28.7168 44.7929C29.6799 45.1841 30.1433 46.2822 29.7522 47.2453L29.7427 47.2691C29.4458 47.9999 28.7416 48.4434 27.9984 48.4434ZM118.612 44.8481C117.927 44.8481 117.264 44.4722 116.929 43.8232L116.901 43.768C116.442 42.8345 116.827 41.7068 117.76 41.2481C118.693 40.7895 119.821 41.1739 120.28 42.1065L120.281 42.1103C120.759 43.0334 120.392 44.162 119.468 44.6388C119.194 44.7806 118.901 44.8481 118.612 44.8481ZM31.369 41.624C31.035 41.624 30.6962 41.5355 30.3908 41.3481C29.5048 40.8085 29.2241 39.6542 29.7598 38.7682C30.2785 37.8822 31.4157 37.5739 32.3121 38.0821C33.2161 38.595 33.534 39.7436 33.022 40.6477C33.0077 40.6724 32.9925 40.6972 32.9773 40.7219C32.6233 41.3033 32.0038 41.624 31.369 41.624ZM114.704 38.3181C114.101 38.3181 113.508 38.0288 113.145 37.493C112.541 36.647 112.741 35.4794 113.588 34.8751C114.433 34.2708 115.615 34.4754 116.22 35.3214L116.26 35.3785C116.843 36.2388 116.619 37.4093 115.759 37.9936C115.435 38.2134 115.068 38.3181 114.704 38.3181ZM35.7427 35.4014C35.3183 35.4014 34.8929 35.2586 34.5408 34.9674C33.7414 34.3032 33.631 33.1165 34.2953 32.3162L34.3114 32.2972C34.9757 31.4969 36.1614 31.3874 36.9617 32.0507C37.762 32.7149 37.8724 33.9016 37.2082 34.7019L37.192 34.721C36.8199 35.1701 36.2832 35.4014 35.7427 35.4014ZM109.854 32.4618C109.359 32.4618 108.865 32.2686 108.496 31.8832C107.768 31.1409 107.779 29.9467 108.522 29.2187C109.263 28.4916 110.454 28.5021 111.181 29.2444L111.212 29.2758C111.933 30.0256 111.908 31.218 111.158 31.9375C110.792 32.2886 110.323 32.4618 109.854 32.4618ZM41.0109 29.9162C40.4894 29.9162 39.9717 29.7021 39.5996 29.2815C38.9106 28.503 38.9839 27.3135 39.7623 26.6245L39.77 26.6179C40.5436 25.9261 41.7341 25.9889 42.4278 26.7625C43.1206 27.5352 43.0597 28.7219 42.2879 29.4166L42.2575 29.4442C41.8987 29.7611 41.4534 29.9162 41.0109 29.9162ZM104.17 27.4087C103.784 27.4087 103.395 27.2907 103.06 27.0452L102.996 26.9966C102.176 26.3581 102.027 25.1762 102.666 24.3549C103.303 23.5356 104.482 23.3871 105.303 24.0219C106.125 24.6395 106.3 25.8061 105.691 26.6379C105.322 27.1422 104.75 27.4087 104.17 27.4087ZM104.34 25.2694L104.151 25.5111L104.34 25.2694ZM47.048 25.2951C46.4266 25.2951 45.8185 24.9878 45.4597 24.4253C44.9011 23.5498 45.1571 22.3889 46.0297 21.8284C46.8881 21.2612 48.0462 21.4886 48.6248 22.3422C49.2091 23.2025 48.9845 24.373 48.1243 24.9563L48.0586 25.0001C47.7455 25.2 47.3953 25.2951 47.048 25.2951ZM97.78 23.2767C97.4831 23.2767 97.1814 23.2063 96.9007 23.0569L96.8559 23.0322C95.9452 22.5316 95.6131 21.3868 96.1137 20.4761C96.6142 19.5654 97.759 19.2333 98.6697 19.7338L98.6754 19.7367C99.5842 20.2325 99.9278 21.3735 99.4367 22.2851C99.0961 22.917 98.449 23.2767 97.78 23.2767ZM53.7179 21.6485C53.0004 21.6485 52.3143 21.2365 52.0002 20.5408C51.572 19.594 51.9926 18.4796 52.9395 18.0514L52.9832 18.0323C53.9349 17.6146 55.0445 18.0495 55.4622 19.002C55.8781 19.9546 55.4441 21.0642 54.4916 21.481C54.2403 21.5943 53.9767 21.6485 53.7179 21.6485Z" fill="#A7C7D3"/>
<path d="M88.6729 101.618L60.3326 73.2779C58.5559 71.5021 58.554 68.6282 60.3279 66.8554C61.0282 66.155 61.9037 65.7305 62.8135 65.5868C64.2019 65.3632 65.676 65.7867 66.7504 66.8611L59.4524 59.5631C58.5654 58.6762 58.1201 57.5133 58.1201 56.3532C58.1201 56.1115 58.1391 55.8689 58.1781 55.6272C58.3237 54.7155 58.7463 53.8419 59.4476 53.1406C60.1413 52.4468 61.0016 52.0262 61.8999 51.8768C63.1228 51.6732 64.4113 51.971 65.4381 52.7713L62.6612 49.9945C61.7734 49.1066 61.328 47.9409 61.328 46.7799C61.3261 46.5334 61.348 46.2851 61.3889 46.0424C61.5345 45.1365 61.9561 44.2676 62.6536 43.5701C63.355 42.8687 64.2295 42.4443 65.144 42.3006C66.5315 42.077 68.0065 42.5014 69.0799 43.5748L72.2603 46.7552C71.1887 45.6836 70.7624 44.2067 70.986 42.8193C71.1297 41.9086 71.5523 41.035 72.2555 40.3327C74.0265 38.5617 76.9032 38.5636 78.678 40.3384L97.0957 58.7561L97.1471 58.6828C98.0807 57.7493 99.1807 57.086 100.354 56.6901C103.25 55.7138 106.583 56.3808 108.894 58.6923L117.481 67.2798C119.132 68.9299 120.058 71.1662 120.062 73.4977L120.067 78.8706C120.069 81.3809 121.068 83.7895 122.847 85.5681L124.761 87.4827L102.858 109.386L100.41 106.939C98.783 105.311 96.618 104.331 94.3236 104.181C92.192 104.041 90.185 103.13 88.6729 101.618Z" fill="#FECBAA"/>
<path d="M101.434 110.809L126.296 85.9468C127.116 85.1275 128.443 85.1275 129.262 85.9468L138.116 94.8007C138.936 95.6201 138.936 96.9485 138.116 97.7669L113.255 122.629C112.436 123.448 111.107 123.448 110.289 122.629L101.434 113.775C100.616 112.956 100.616 111.627 101.434 110.809Z" fill="#FDD559"/>
<path d="M126.958 97.1065C127.693 97.8421 128.884 97.843 129.617 97.1093C130.351 96.3756 130.35 95.1842 129.615 94.4495C128.88 93.7139 127.689 93.713 126.956 94.4467C126.222 95.1813 126.223 96.3718 126.958 97.1065Z" fill="#FF8812"/>
<path d="M103.437 65.0968L97.0957 58.7561L97.1471 58.6828C98.0806 57.7493 99.1807 57.086 100.354 56.6901L106.099 62.4351C106.834 63.1697 106.834 64.3621 106.099 65.0968C105.362 65.8333 104.172 65.8314 103.437 65.0968Z" fill="#FFAE85"/>
<path d="M64.0582 101.621L92.3985 73.2807C94.1752 71.5041 94.1771 68.6311 92.4042 66.8582C91.7029 66.1569 90.8284 65.7325 89.9176 65.5888C88.5292 65.3651 87.0552 65.7896 85.9808 66.863L93.2788 59.5659C94.1657 58.679 94.6111 57.5161 94.6111 56.3552C94.6111 56.1144 94.592 55.8708 94.553 55.63C94.4074 54.7174 93.9849 53.8448 93.2835 53.1434C92.5898 52.4497 91.7295 52.0291 90.8312 51.8797C89.6084 51.676 88.3199 51.9739 87.2931 52.7742L90.0699 49.9964C90.9578 49.1095 91.4031 47.9438 91.4031 46.7828C91.405 46.5354 91.3831 46.287 91.3422 46.0443C91.1976 45.1393 90.7751 44.2695 90.0775 43.572C89.3762 42.8716 88.5016 42.4472 87.5871 42.3035C86.1997 42.0799 84.7246 42.5033 83.6512 43.5777L80.4709 46.758C81.5424 45.6856 81.9687 44.2096 81.7451 42.8212C81.6014 41.9114 81.1789 41.0378 80.4756 40.3346C78.7047 38.5636 75.8279 38.5655 74.0531 40.3403L55.6354 58.758L55.584 58.6857C54.6505 57.7521 53.5504 57.0889 52.3771 56.693C49.4803 55.7166 46.1477 56.3837 43.8372 58.6943L35.2497 67.2827C33.5987 68.9328 32.6727 71.1691 32.6689 73.5006L32.6632 78.8725C32.6623 81.3838 31.6631 83.7924 29.8845 85.5709L27.9698 87.4856L49.8733 109.389L52.3209 106.942C53.9482 105.314 56.1131 104.334 58.4075 104.184C60.5391 104.044 62.5461 103.133 64.0582 101.621Z" fill="#FECBAA"/>
<path d="M51.297 110.811L26.4349 85.9497C25.6155 85.1303 24.288 85.1303 23.4687 85.9497L14.6148 94.8036C13.7954 95.6229 13.7954 96.9504 14.6148 97.7698L39.4759 122.632C40.2953 123.451 41.6237 123.451 42.4431 122.632L51.297 113.778C52.1163 112.959 52.1163 111.63 51.297 110.811Z" fill="#FF84A7"/>
<path d="M42.8113 114.145C43.5469 113.41 43.5479 112.219 42.8142 111.485C42.0805 110.751 40.8891 110.752 40.1544 111.487C39.4188 112.222 39.4179 113.413 40.1516 114.147C40.8862 114.881 42.0767 114.88 42.8113 114.145Z" fill="#EF6085"/>
<path d="M49.2947 65.0996L55.6354 58.758L55.584 58.6857C54.6505 57.7521 53.5504 57.0889 52.377 56.693L46.6321 62.437C45.8974 63.1716 45.8974 64.365 46.6321 65.0996C47.3686 65.8362 48.5591 65.8343 49.2947 65.0996Z" fill="#FFAE85"/>
<path d="M94.4911 33.7008V73.7804C94.4911 76.2926 92.4613 78.3253 89.9538 78.3253C88.9622 78.3253 88.0439 78.0065 87.2978 77.4641C86.1587 76.6409 85.4155 75.2982 85.4155 73.7804V84.1007C85.4155 85.3549 84.9083 86.4921 84.088 87.3124C83.9176 87.4837 83.7311 87.6417 83.5332 87.7844C82.7852 88.3269 81.8697 88.6457 80.8781 88.6457C79.897 88.6457 78.9901 88.3345 78.2498 87.8054C77.241 87.085 76.5406 85.963 76.3808 84.6698V88.5981C76.3808 89.8533 75.8707 90.9924 75.0504 91.8127C74.8772 91.9887 74.6859 92.1495 74.4861 92.2923C73.7429 92.8299 72.8293 93.1459 71.8425 93.1459C70.8518 93.1459 69.9326 92.8271 69.1846 92.2828C68.0455 91.4596 67.3023 90.1169 67.3023 88.5981V84.1007C67.3023 85.6166 66.56 86.9613 65.42 87.7844C64.6749 88.3269 63.7584 88.6457 62.7649 88.6457C60.2593 88.6457 58.2267 86.6101 58.2267 84.1007V58.0538L58.1391 58.069C56.8192 58.069 55.5716 57.7598 54.462 57.2107C51.7242 55.8527 49.8391 53.0245 49.8391 49.7566V37.611C49.8391 35.2777 50.765 33.0414 52.4113 31.3893L56.2064 27.5876C57.9811 25.81 58.9775 23.4014 58.9775 20.8863V18.1779H89.9528V21.639C89.9528 23.94 90.7912 26.164 92.3071 27.8931C93.7155 29.4994 94.4911 31.5625 94.4911 33.7008Z" fill="#FEDFC5"/>
<path d="M92.4042 66.8582C91.7029 66.1569 90.8283 65.7334 89.9176 65.5888C88.5292 65.3651 87.0551 65.7896 85.9808 66.8639L93.2788 59.5659C94.1657 58.679 94.612 57.5161 94.612 56.3561C94.612 56.1144 94.592 55.8708 94.553 55.63C94.4074 54.7174 93.9858 53.8448 93.2845 53.1434C92.5907 52.4497 91.7295 52.0291 90.8321 51.8797C89.6093 51.676 88.3208 51.9739 87.2931 52.7742L90.0708 49.9964C90.9578 49.1095 91.4031 47.9438 91.4031 46.7828C91.405 46.5363 91.3841 46.2879 91.3432 46.0443C91.1976 45.1393 90.775 44.2695 90.0775 43.572C89.3771 42.8716 88.5016 42.4472 87.5881 42.3035C86.2006 42.0799 84.7246 42.5043 83.6512 43.5777L80.4709 46.758C81.5424 45.6856 81.9687 44.2096 81.7451 42.8212C81.6014 41.9114 81.1789 41.0378 80.4766 40.3346C78.7047 38.5636 75.8279 38.5655 74.0531 40.3403L55.6354 58.758L55.584 58.6857C54.6505 57.7521 53.5504 57.0889 52.377 56.693C50.9877 56.2248 49.4984 56.1382 48.0681 56.4265C49.2195 58.1671 50.8297 59.6107 52.7919 60.5842C53.3363 60.8535 53.8939 61.08 54.463 61.2627V84.1007C54.463 88.6828 58.1876 92.4103 62.765 92.4103C63.3159 92.4103 63.8584 92.357 64.3865 92.2523C64.9775 93.4599 65.8587 94.5229 66.9692 95.3251C67.6582 95.8275 68.41 96.212 69.2008 96.4785L92.3985 73.2807C94.1752 71.5041 94.1771 68.6311 92.4042 66.8582Z" fill="#FFAE85"/>
<path d="M98.2538 73.7803V57.7512C97.8646 58.0243 97.4935 58.3355 97.1452 58.6828L97.0938 58.7561L78.6761 40.3384C76.9013 38.5636 74.0246 38.5617 72.2536 40.3327C71.5503 41.035 71.1278 41.9086 70.9841 42.8193C70.7605 44.2067 71.1868 45.6836 72.2583 46.7552L69.078 43.5748C68.0046 42.5014 66.5296 42.077 65.1421 42.3006C64.2276 42.4443 63.353 42.8687 62.6517 43.5701C61.9542 44.2676 61.5316 45.1365 61.386 46.0424C61.3461 46.2851 61.3242 46.5334 61.3261 46.7799C61.3261 47.9409 61.7714 49.1066 62.6593 49.9945L65.4362 52.7713C64.4084 51.971 63.1209 51.6732 61.898 51.8768C60.9997 52.0262 60.1394 52.4468 59.4457 53.1406C58.7443 53.8419 58.3218 54.7155 58.1762 55.6272C58.1372 55.8689 58.1172 56.1115 58.1182 56.3532C58.1172 57.5142 58.5635 58.6762 59.4504 59.5631L66.7484 66.8611C65.675 65.7876 64.2 65.3632 62.8125 65.5868C61.9018 65.7305 61.0263 66.155 60.3259 66.8554C58.5531 68.6292 58.555 71.5021 60.3307 73.2788L79.3165 92.2637C79.8266 92.3608 80.3481 92.4102 80.8762 92.4102C82.6358 92.4102 84.3183 91.865 85.7343 90.8382C86.0949 90.5774 86.4366 90.2872 86.7487 89.975C88.316 88.4077 89.1792 86.3218 89.1792 84.1007V82.0547C89.4342 82.0785 89.693 82.0899 89.9519 82.0899C94.5292 82.0899 98.2538 78.3624 98.2538 73.7803Z" fill="#FFAE85"/>
<path d="M94.4911 33.7008V73.7804C94.4911 76.2926 92.4613 78.3253 89.9538 78.3253C89.8862 78.3253 89.8129 78.3253 89.7406 78.3205C88.8337 78.2777 87.9934 77.9694 87.3035 77.4669C87.3007 77.4669 87.3007 77.4641 87.2978 77.4641C86.1587 76.6409 85.4155 75.2982 85.4155 73.7804V84.1007C85.4155 85.3549 84.9083 86.4921 84.088 87.3124C83.9176 87.4837 83.7311 87.6417 83.5332 87.7844C82.7852 88.3269 81.8697 88.6457 80.8781 88.6457C79.897 88.6457 78.9901 88.3345 78.2498 87.8054C77.241 87.085 76.5406 85.963 76.3808 84.6698V88.5981C76.3808 89.8533 75.8707 90.9924 75.0504 91.8127C74.8772 91.9887 74.6859 92.1495 74.4861 92.2923C73.7429 92.8299 72.8293 93.1459 71.8425 93.1459C70.8518 93.1459 69.9326 92.8271 69.1846 92.2828C68.0455 91.4596 67.3023 90.1169 67.3023 88.5981V84.1007C67.3023 85.6166 66.56 86.9613 65.42 87.7844C64.6749 88.3269 63.7584 88.6457 62.7649 88.6457C60.2593 88.6457 58.2267 86.6101 58.2267 84.1007V58.0538L58.1391 58.069C56.8192 58.069 55.5716 57.7598 54.462 57.2107C51.7242 55.8527 49.8391 53.0245 49.8391 49.7566V37.611C49.8391 35.2777 50.765 33.0414 52.4113 31.3893L56.2064 27.5876C57.3036 26.4885 58.1039 25.1476 58.5531 23.6869C58.8347 22.7838 58.9775 21.8322 58.9775 20.8863V18.1779H89.9528V21.639C89.9528 22.4146 90.0366 23.233 90.2516 23.98C90.6133 25.4189 91.3165 26.7616 92.3071 27.8931C93.7032 29.487 94.4911 31.5778 94.4911 33.7008Z" fill="#FEDFC5"/>
<path d="M94.4911 33.7008V73.7804C94.4911 76.2926 92.4613 78.3253 89.9538 78.3253C89.8862 78.3253 89.8129 78.3253 89.7406 78.3206C88.8337 78.2777 87.9934 77.9694 87.3035 77.4669L87.3806 38.8463C87.3806 38.6131 87.3283 38.2439 87.2302 37.7747C85.4983 29.3386 78.3782 23.6869 69.767 23.6869H58.5531C58.8348 22.7829 58.9775 21.8322 58.9775 20.8863V18.1779H89.9528V21.639C89.9528 22.4146 90.0366 23.233 90.2516 23.98C90.6133 25.4189 91.3165 26.7616 92.3072 27.8931C93.7032 29.487 94.4911 31.5778 94.4911 33.7008Z" fill="#FECBAA"/>
<path d="M91.9665 18.1789H56.8059C55.6477 18.1789 54.7085 17.2396 54.7085 16.0815V3.55911C54.7085 2.40098 55.6477 1.46173 56.8059 1.46173H91.9665C93.1246 1.46173 94.0638 2.40098 94.0638 3.55911V16.0815C94.0638 17.2396 93.1246 18.1789 91.9665 18.1789Z" fill="#83D9FF"/>
<path d="M64.6454 9.82082C64.6454 8.78069 63.8041 7.93851 62.7659 7.93851C61.7277 7.93851 60.8864 8.78069 60.8864 9.82082C60.8864 10.86 61.7277 11.7031 62.7659 11.7031C63.8041 11.7031 64.6454 10.86 64.6454 9.82082Z" fill="#5186FF"/>
<path d="M87.2988 52.8057V77.4641C86.1587 76.641 85.4155 75.2982 85.4155 73.7794V84.0998C85.4155 85.355 84.9093 86.4922 84.088 87.3125C83.9177 87.4838 83.7321 87.6417 83.5332 87.7845V52.8057C83.5332 51.7665 84.3773 50.9233 85.4155 50.9233C86.4547 50.9233 87.2988 51.7665 87.2988 52.8057Z" fill="#FECBAA"/>
<path d="M78.2507 52.8057V87.8045C77.2411 87.0841 76.5416 85.9621 76.3808 84.6698V88.5981C76.3808 89.8524 75.8717 90.9924 75.0504 91.8127C74.8772 91.9887 74.6869 92.1486 74.4861 92.2923V52.8057C74.4861 51.7665 75.3293 50.9233 76.3684 50.9233C77.4076 50.9233 78.2507 51.7665 78.2507 52.8057Z" fill="#FECBAA"/>
<path d="M69.1846 52.8057V92.2818C68.0455 91.4587 67.3023 90.116 67.3023 88.5981V84.0998C67.3023 85.6157 66.5601 86.9613 65.42 87.7845V52.8057C65.42 51.7665 66.2641 50.9233 67.3023 50.9233C68.3444 50.9233 69.1846 51.7665 69.1846 52.8057Z" fill="#FECBAA"/>
<path d="M58.2276 49.0857V58.0538L58.1391 58.0681C56.8192 58.0681 55.5717 57.7598 54.463 57.2107V49.0857C54.463 48.0466 55.3062 47.2034 56.3453 47.2034C57.3864 47.2034 58.2276 48.0466 58.2276 49.0857Z" fill="#FECBAA"/>
</g>
<defs>
<clipPath id="clip0">
<rect width="124.731" height="124.731" fill="white" transform="translate(14)"/>
</clipPath>
</defs>
</svg>
